<svg xmlns="http://www.w3.org/2000/svg" xml:space="preserve" id="Layer_1" x="0" y="0" style="enable-background:new 0 0 40 40" version="1.1" viewBox="0 0 40 40"><style>.st0{fill:#2b2b2f}</style><path d="M14.8 22.8c0 .1 0 .2-.1.3-.2.3-.3.6-.1.9-.2.1-.4.2-.4.4 0 .1.1.1.1.2.2-.1.3-.2.4-.4.1-.1.1-.3.2-.4.1-.2.1-.2.3-.2 0 .3-.1.5 0 .8 0 .3.2.5.3.7-.3 0-.4-.1-.7-.7-.1.3.1.7-.3 1-.2 0-.2-.2-.3-.3-.1-.1-.1-.3-.2-.4-.2-.2-.1-.3-.1-.5 0-.1.1-.3.1-.4-.3.1-.3.1-.4.6-.1 0-.2-.1-.3-.1 0-.1-.1-.3 0-.4.1-.2.3-.4.5-.6 0-.1 0-.2-.1-.4-.3.2-.4.5-.5.7-.1.2-.2.3-.2.5v.3c.1.2.2.3.3.5-.1 0-.3.1-.4.1.2.2.2.2.3.1.1-.1.2-.2.3-.2.1-.1.2 0 .3.1.1.3.1.6.2.9.3 0 .5-.3.9-.3 0 .1 0 .3-.1.4.3.2.3.2.5 0 .1-.1.2-.1.2-.1.1 0 .1.1.2.2.1.2.1.4.2.6h-.3c-.3 0-.4.1-.6.4-.1.4-.2.8-.1 1.2 0 .2 0 .4-.2.5-.2-.5 0-1.1 0-1.6-.2.1-.3.2-.3.4s-.1.5-.1.7v.6c-.2-.2-.4 0-.6 0 0 .6.1 1.1.4 1.7.1-.1.1-.3.1-.4 0-.2-.1-.4-.1-.6 0-.2 0-.4.2-.5.1.1.1.2.1.3 0 .1 0 .2.2.3v-.2c0-.2 0-.3.2-.4.3-.1.3-.3.3-.5 0-.1-.1-.3-.1-.4-.1-.3 0-.5.2-.7.1.2.1.4.2.6h.1c.2-.5.7-.8.9-1.4-.1 0-.1.1-.2.1-.2-.3-.2-.5 0-.8l.2.2c.2.2.3.2.5 0 .2-.1.3-.3.5-.5.2.2.2.4.2.7-.1.1-.4 0-.4.3l.6-.3c0-.5 0-1 .5-1.2v.2c0 .1 0 .2.1.3.1 0 .3 0 .4-.1.1-.1.1-.2.2-.3.1-.4.4-.5.8-.7v.7c.1.1.2.1.3-.1v-.1c0-.3.1-.4.4-.4.5-.1.5-.2.5-.6 0-.3 0-.6.3-.8v.3c.2 0 .3 0 .5.1 0-.2 0-.3.1-.5 0-.3.1-.4.5-.5.4 0 .4-.2.2-.5s-.2-.4.1-.6c.2.1.4.2.7.3h.2s.1-.1.1-.2-.1-.1-.2-.1h-.2c-.1-.1-.2-.1-.2-.2s.1-.2.2-.2c.5-.2.5-.3.4-.7.1-.2.4.2.6-.2-.3 0-.5-.1-.6-.4.3 0 .6.1.8-.1-.1-.1-.3-.1-.4-.1-.5 0-.5-.1-.6-.6-.1-.4-.2-.8-.4-1.2.2 0 .3.1.4.3.1.3.2.5.3.8.1.3.2.4.5.2.2-.1.4-.1.6 0 .2.2.2.3.1.5-.1.1-.1.2-.3.3.2-.1.3-.1.5-.2h.3v.3c-.2.5-.2.5.2.8.2.2.5.4.8.4.4.1.8.3 1.1.5.2.2.5.4.7.5.2.1.5.3.7.4.5.2.9.5 1.2 1 .2.3.4.5.5.8.2.3.4.6.5.9.2.4.3.9.5 1.3.1.2.1.5-.1.7-.9 1.3-1.8 2.5-3.1 3.5L27 32.1c-.4.3-.4.3-.8 0-.2.1-.3.3-.5.4-.2.1-.4.2-.7.3.1-.1.1-.2.1-.3.2-.3.5-.6.7-.9.2-.3.4-.5.6-.8.1-.1.1-.2.2-.3-.2-.1-.3.1-.4.1-.5.6-1 1.1-1.5 1.6-.1.1-.1.2-.1.4 0 .3 0 .3-.3.3h-.1c-.2.2-.5.1-.7.2-.2 0-.3.1-.5.1-.1-.1-.1-.1 0-.2l.2-.2c.1-.1.1-.2.1-.4l-.6.6c-.2.2-.5.3-.8.5.1-.3.3-.5.5-.7.2-.2.4-.4.6-.7-.3 0-.5.1-.7.3l-.6.6c-.2.2-.4.3-.6.5-.1.1-.2.1-.4.1.2-.5.7-.8 1-1.2-.1-.1-.3 0-.3 0-.3.2-.5.5-.7.7 0 0 0 .2-.1.2-.1.3-.3.3-.4.1-.1-.1-.1-.2-.2-.3-.1-.1-.1-.2-.3-.4-.2.2-.3.4-.4.5-.2.2-.4.1-.7.1.1-.2.2-.3.3-.5.3-.4.6-.7.9-1.1 1.1-1.4 2.3-2.8 3.3-4.3.4-.6.7-1.1 1-1.7.1-.1.1-.3.2-.4.1-.3.1-.4-.2-.6-.3-.1-.6-.2-.8-.3 0-.1-.1-.2-.1-.2-.4-.1-.6-.3-.8-.6-.3.3-.6.5-.9.7.4 0 .7-.4 1.2-.2-1.2.7-2.4 1.4-3.2 2.5.2-.1.3-.2.4-.3.6-.4 1.1-.8 1.7-1.2.3-.2.6-.3.8-.5.3-.2.6-.3.9-.3-.2.3-.5.5-.8.7-1 .5-1.9 1.2-2.8 1.8-.3.3-.7.5-1 .8-.1.1-.3.2-.3.5l.3-.3c1.3-1 2.7-1.9 4.1-2.8l.6-.3c.1 0 .2-.1.3-.1.1 0 .2.1.2.1s0 .1-.1.2l-.1.1c-1.2.5-2.2 1.2-3.3 2-.6.4-1.2.8-1.8 1.3-.3.2-.6.5-.8.8-.1.1-.1.2-.2.3h.1c.1-.1.2-.1.3-.2 1.1-.8 2.3-1.6 3.4-2.4.7-.5 1.4-.9 2.1-1.4l.3-.3c.2.2.2.2.1.4l-.1.1c-.6.4-1.2.9-1.8 1.3-1.8.9-3.3 2.1-4.8 3.5-.1.1-.2.3-.3.4l.1.1c.1-.1.2-.1.3-.2 1.2-1 2.4-2 3.8-2.8.5-.3 1.1-.7 1.6-1 .2-.1.3-.2.5-.4.1-.1.2-.1.3-.1 0 .2-.1.4-.2.6 0 .1-.1.1-.2.1l-.6.3c-.2.1-.3.2-.5.3-1.7 1-3.3 2.2-4.8 3.5-.2.2-.4.4-.5.7.2-.2.4-.4.7-.5.2-.2.4-.4.7-.5.2-.2.5-.4.7-.5.2-.2.5-.3.7-.5.2-.2.5-.3.7-.5.2-.2.5-.3.7-.5.2-.2.5-.3.7-.5.2-.2.5-.3.7-.5.1.2 0 .3-.1.4-.1.1-.2.2-.4.3-1.5 1.1-3 2.2-4.6 3.4-.2.1-.3.3-.5.4-.3.3-.5.3-.9.2-.1-.1-.3-.1-.5-.1.1-.3.5-.2.6-.6-.1 0-.2.1-.3.1-.1 0-.1.1-.2.1-.6.2-.7.2-1.1-.4l-.1-.1c-.1 0-.2.1-.4.2 0-.1-.1-.2-.1-.3-.1 0-.2.1-.3.1-.1-.1-.1-.2 0-.4.1-.1.3-.2.4-.4v-.1c-.1 0-.2.1-.3.1-.1.1-.3.2-.4.3h-.2s-.1-.1-.1-.2.1-.2.1-.3c-.2-.1-.4-.1-.6-.1-.1.1-.3 0-.4-.1-.2-.1-.2-.2 0-.4.1 0 .1-.1.2-.1 0-.1 0-.1.1-.3-.3.2-.5.5-.8.4-.1 0-.3-.1-.4-.2 0-.2.3-.2.1-.4-.1.1-.3.2-.5.3-.1-.1-.1-.2-.2-.3-.2.1-.3 0-.4-.2-.1-.1-.2-.2-.3-.4.1-.1.1-.2.2-.3h-.2c-.4 1-.7.7-.7.1s.2-1.1.5-1.6c.2-.3.3-.6.4-.9.1-.3.2-.5.3-.8.1-.3.3-.5.6-.7.5-.4.9-.8 1.4-1.3.3-.2.3-.3.1-.6-.1-.2-.1-.4 0-.5s.2-.3.3-.5c.1-.1.1-.2 0-.3-.3-.4-.3-.4 0-.7-.1-.4-.1-.4.2-.6 0-.1-.1-.1-.1-.3 0 0 .1-.1.1-.2.2-.3.3-.5.1-.8-.1-.1-.1-.2 0-.3.1-.4.3-.8.4-1.1 0-.1.1-.2.2-.2.7-.1 1.3-.3 1.8-.8.1 0 .1-.1.3-.1 0 .1 0 .2-.1.4.2-.1.3-.3.3-.4 0-.2.1-.4.3-.6.1-.2.1-.3-.1-.5-.1-.1-.3-.1-.4 0-.3.2-.5.5-.7.7-.3.4-.7.6-1.2.7-.1-.1-.1-.2 0-.2h.2c.1 0 .2-.1.3-.1v-.1c-.2 0-.3 0-.5.1.1-.1.1-.2.1-.3.2-.3.3-.7.3-1.1 0-.3 0-.6.1-.9.2-.6.1-1-.4-1.4-.1-.1-.1-.1-.3-.2.2-.1.3-.2.2-.5h.3v-.1c-.1-.1-.1-.3-.3-.3-.3-.2-.4-.4-.4-.8s.1-.8.3-1.1c.3-.4.4-.7.4-1.1 0-.1.1-.2.2-.3.5-.6 1.1-1 1.8-1.3.4-.2.9-.4 1.3-.6.5-.2 1-.2 1.4 0 .4.2.8.2 1.2.3.5.1 1.1.2 1.6.4s.8.6 1 1.1c0 .1 0 .2-.1.2h-.3c-.1 0-.1-.1-.2-.2-.2-.3-.4-.4-.8-.4-.2 0-.4 0-.6-.1-.1 0-.2-.1-.4-.2.2-.1.3 0 .4 0 .2 0 .3.1.5.1h.5c-.3-.4-.7-.5-1-.5h-.6c-.4 0-.9 0-1.3-.3-.1-.1-.2-.1-.3-.1-.3-.1-.5-.1-.7.1-.1.1-.3.1-.4.2 0 0 0 .1.1.2-.4.1-.7.1-1 .2v.1c.3.1.6.1.9.2v.1c-.5 0-1.1 0-1.6.4h.7v.1c-.3.1-.6.3-.8.4v.1c.6-.1 1.1-.4 1.6.3h-.4c-.3 0-.6 0-.8.1-.3.1-.5.3-.6.6.3-.2.6-.3 1-.2-.4.2-.7.4-1.1.6v.1c.5-.1.9-.2 1.4.1-.7.1-1.3.3-1.8.7v.1c.1-.1.3-.1.4-.2.1 0 .2-.1.4-.1 0 0 .1 0 .2.1 0 .1-.1.1-.1.2h-.1c-.3.1-.6.3-.8.4-.1.1-.2.2-.3.5.1-.1.2-.2.3-.2.5-.4 1.3-.4 1.8-.1.1.1.1.1.1.2-.3 0-.5-.1-.8-.1-.5 0-.9.3-1.4.6.3.1.3.1.5-.1h.6c.3 0 .6 0 .9.1.3.1.6.1.9.2 0-.1-.1-.2-.1-.3.2 0 .3-.1.5-.1.5 0 1-.1 1.5-.1.1 0 .3.1.4.1.1 0 .1.1.2.1.5.1.7.5.7.9-.1.1-.2.3-.3.4-.1-.2-.3-.4-.5-.6l-.3-.3c-.2-.1-.2-.1-.6 0 .4.1.7.3.8.7-.3.3-.3.3-.6-.1l-.1.1c-.2.2-.2.2-.5 0-.1-.1-.2-.1-.3 0-.2-.5-.3-.4-.4-.4-.2-.2-.3-.4-.5-.5-.1-.1-.3.1-.5.1.1.1.1.3.1.4l-.3.3c.1.1.1.2.1.3-.1.1-.2.1-.3.2.1.1.1.2.2.3-.1.2-.4.1-.4.4.1.1.2.3.3.4.1.1.3.2.4.1l.9-.3c.1 0 .1-.1.2-.1-.1-.1-.1-.2-.2-.3-.1-.1-.2-.2 0-.3.1-.1.2 0 .3.1.1.2.3.4.1.6v.2c.3-.1.5-.2.8-.4v.4c.1 0 .3 0 .4-.1v.3c.1 0 .3 0 .4.1v.4c.2 0 .3 0 .6-.1-.3.4-.1.6.1.8.1-.1.1-.2.3-.1.1.1.1.2.2.3 0-.1.1-.2.1-.2.3.4.2.7-.1 1-.3-.2-.1-.6-.4-.8-.1.2 0 .6-.3.7-.1-.3-.2-.7-.3-1-.2-.2-.2-.2-.5-.2l-.1-.1s-.1-.1-.1-.2c-.3.1-.4 0-.6-.3-.1-.2-.2-.3-.4-.4-.1.1-.2.1-.3.2h-.1c-.3-.1-.6 0-.8.2l-.3.3c-.1.1-.2.2-.4.2v-.4c-.3.1-.6.5-.5.9.2-.1.3-.2.5-.3.4-.3.5-.3.9.1.1-.3.1-.3.3-.1.2.1.4.3.5.5.1.2.3.2.5.3 0-.2 0-.4-.1-.6.2.2.2.4.2.6 0 .2 0 .4.2.5.1-.1.2-.3.3-.4h.1c.1.4-.2.7-.2 1.1.1 0 .2 0 .6-.3-.2.5-.4 1.1-.1 1.6-.2 0-.3-.1-.4-.2-.1-.2-.2-.3-.5-.3v-.2c.1-.7-.3-1.2-.8-1.6.1 0-.1-.1-.2-.1h-.9c-.2 0-.4.1-.6.1-.1 0-.2-.3-.4-.1l.2.2-.3.3c-.1-.1-.1-.2-.1-.3h-.1c-.2.1-.3.3-.3.5 0 .3-.2.5-.5.5-.2 0-.3.1-.4.3-.2.2-.4.4-.7.5.3.2.4.2.6 0 .1-.1.1-.2.3-.2.1-.1.2-.1.4-.1v.1c0 .1-.1.1-.1.2-.3.2-.5.3-.8.5-.2.1-.2.2-.2.4.2.1.3 0 .4-.1.4-.2.6-.5.8-.9.1-.3.2-.5.4-.7 0-.1.1-.1.2-.3.1.4.1.8-.2 1.1l-.6.6c-.2.2-.4.3-.7.5-.4.3-.6.6-.6 1.1 0 .2-.1.4-.3.5-.3.1-.4.4-.5.6 0 0 0 .1.1.2.2-.2.3-.5.6-.7.2.3-.1.7.1 1 .1-.1.2-.3.5-.1 0-.2.1-.3.1-.4h-.4c.2-.3.4-.5.6-.7.2-.2.4-.5.7-.7-.2.5-.4.9-.7 1.4.1.1.1.2.2.2-.1.3-.4.5-.2.8.1-.2.3-.4.5-.5zm12.9 5.9-.2.2c-.3.2-.6.5-.8.8.3-.2.7-.4 1-.7.2-.1.1-.2 0-.3.1.1.3.1.4 0 .2-.1.3-.2.5-.4-.1-.2-.2-.2-.3-.1-.2.1-.4.3-.6.5zm-3.1-4.6c.2.1.3 0 .4-.2.1-.1.1-.3.1-.4.1-.5.1-1.1.1-1.6 0-.1 0-.2-.1-.3-.1.1-.1.1-.1.2.1.5-.2.8-.6 1l-1.5.9c-.1.1-.2.1-.1.3.7-.3 1.4-.6 1.9-1.1.2.3.2.3 0 .5-.4.4-.8.6-1.2.8-.1.1-.2.1-.4.2.7.1 1-.4 1.6-.5-.1 0-.1.1-.1.2zm4.6 1.9c-.1-.1-.2-.1-.3-.1-.3.1-.5.3-.8.5 0 0-.1.1-.1.2 0 .2-.1.2-.2.3-.5.1-.9.4-1.2.8-.3.3-.6.7-.9 1-.1.1-.1.3-.2.4h.1c1.1-1.2 2.4-2.2 3.6-3.1zm-.2-1.2v-.1c-.1 0-.3 0-.4.1-1 .3-1.8.8-2.4 1.6-.1.1-.2.3-.3.4v.3l.3-.3 1.2-1.2c.3-.3.7-.5 1.2-.6.1-.1.3-.2.4-.2zM14.5 14.1h.3c.3-.1.6-.3.9-.4.3-.1.4-.3.3-.6-.1-.1-.3-.1-.4-.2-.2.1-.2.4-.5.3-.2 0-.4-.1-.6-.3v.6c.3-.2.6-.2.9-.1-.1.2-.2.3-.4.3h-.4c-.1.1-.1.1-.1.4zm11.6 13.2c.2.2.2.2.4 0 .5-.5 1.1-1 1.7-1.4.1-.1.3-.1.1-.3-.1-.1-.2 0-.3 0h-.1l-1.8 1.5c.1.1.1.1 0 .2zm-.5-1.4c.5-.3 1-.7 1.5-1 .5-.3 1-.6 1.6-.7-.1-.3-.3-.3-.4-.2-.7.4-1.3.7-2 1.1-.4.1-.6.4-.7.8zm-.4-.6.9-.6c.3-.2.6-.4.8-.5.3-.2.6-.3.9-.5-.2-.2-.2-.1-.3-.1-.8.3-1.5.9-2.1 1.5-.1 0-.2.1-.2.2zm1.7 3.3c.6-.3 1.1-.8 1.7-1.1-.1-.3-.2-.3-.4-.2-.2.1-.5.3-.7.5-.3.3-.5.5-.6.8zm-11.8 2c.8-.2 1.7-.7 2-1.2-.8.3-1.5.7-2 1.2zm.9-1.7c.5-.3 1.1-.5 1.7-.7.1 0 .3-.2.3-.4-.8.2-1.6.4-2 1.1zm-.2.6c.5-.1 1-.3 1.5-.6.1-.1.2-.2.3-.4-.7.3-1.2.6-1.8 1zm8.8-7.6c-.2.2-.4.3-.7.5-.2.1-.5.3-.7.4l-.3.3c0 .1-.1.1-.1.3.4-.3.7-.5 1-.7.3-.2.5-.3.8-.5 0 0 .1-.1 0-.3zm-2.5 10.4c.5-.1 1.1-.6 1.2-1.1-.6.2-.9.7-1.2 1.1zm-8.6-13.5c.1-.1.1-.2.2-.3.1-.3.3-.4.5-.4s.4-.1.7-.2c-.3-.3-.4-.3-.6-.2l-.6.6c-.1.1-.2.2-.2.5zm2.2-4.8c0-.1 0-.1 0 0-.4.1-.7.2-1 .3-.2.1-.3.3-.2.5.5-.2.9-.5 1.2-.8zm10.2 10c.4-.1 1.3-.7 1.5-.9-.7.1-1.2.3-1.5.9zm-3.4 6.7c0 .1.1.1 0 0 .5-.3.8-.6 1.2-.9v-.2c-.6.4-1.1.9-1.2 1.1zm-1.3 1.6c.4-.1.9-.4 1.3-1-.7.1-1 .6-1.3 1zM18.3 27c-.5.2-1.1.3-1.5.7.6-.1 1.1-.3 1.5-.7zm7.6 3.9c-.6.1-1.1.7-1.1 1.2.4-.4.7-.8 1.1-1.2zm-10-23.5c-.7 0-1 .2-1.2.6.4 0 .8-.2 1.2-.6zm14 17.7c-.3-.2-.5-.3-.8-.2 0 .1-.1.1-.1.2s0 .2.1.2h.3c.1 0 .3-.1.5-.2zm-14.4 5.7c-.5.1-.8.3-.9.6.5-.1.7-.3.9-.6zm-2.4-2.4h.2c.2-.1.4-.3.6-.4v-.1s-.1-.1-.2-.1c-.2.1-.4.2-.6.6zm16.4-2.1c-.1.1-.2.1-.3.2-.1.1-.2.2-.1.3 0 .1.2.1.3.1.1 0 .2-.1.2-.3 0 0 0-.1-.1-.3zm-16.2 1.4c.5-.3.6-.4.5-.7-.4.2-.5.3-.5.7zm-.7.4c-.5.1-.7.4-.7.7.3-.1.5-.3.7-.7zM23.9 31c-.2.3-.3.6-.5.8.3-.2.5-.4.6-.6 0-.1-.1-.1-.1-.2zm-11.7-4.1s0 .1 0 0c.5-.1.6-.2.5-.6-.2.2-.3.4-.5.6zm-.8-.5c-.3 0-.5.2-.5.5.2-.1.4-.2.5-.5zm1.3.9c-.5.2-.6.3-.5.6.2-.2.4-.3.5-.6zm-1 3.1c.5-.1.6-.2.6-.5-.3.1-.5.3-.6.5zm1.7-.9c-.3.3-.3.3-.3.6.4-.3.5-.3.3-.6zm-2.7-1.8c.3.1.6-.1.6-.4-.3.1-.4.2-.6.4zm13.7.4c.4-.2.5-.3.4-.6-.3.2-.3.3-.4.6zm5.4.6c-.1.1-.2.1-.2.2-.1.1-.1.3 0 .3s.2 0 .3-.1c0-.2 0-.3-.1-.4zm-17.4.2c-.3.2-.5.3-.6.6.4 0 .6-.2.6-.6zm3.9 3.1c-.3.1-.6.1-.7.5.2-.1.5-.2.7-.5zm-2.6-3.5c-.4.2-.5.3-.5.6.3-.1.5-.2.5-.6zm-3.5-1.2c-.2.2-.3.4-.3.7.4-.2.4-.4.3-.7zm.6 2c.4-.1.5-.2.5-.4-.4.1-.4.1-.5.4zm.5-3.5c-.3-.1-.4 0-.4.3.2-.1.3-.1.4-.3zm16.4 3.9c.3-.1.5-.2.6-.4-.3-.1-.4 0-.6.4zm-6.1 1.7c-.4.1-.5.2-.5.6.1-.2.3-.4.5-.6zm-10.9-2.8c.5-.3.6-.3.6-.5-.3 0-.4.1-.6.5zm18.9-.3v-.1h-.3c-.1 0-.2.1-.1.3 0 .1.1.1.2.1.1-.1.2-.2.2-.3zM16 12.5c-.3-.3-.5-.3-.7-.1.2.2.4.2.7.1zm-1.2 19.1c-.3.1-.5.2-.6.6.3-.1.5-.2.6-.6zm-1.2-4.9c.4-.2.4-.2.3-.5-.3.2-.3.2-.3.5zm15.5 1.4V28l-.2-.2h-.2v.2c.2.1.3.1.4.1zm-1 2.2c-.2.2-.4.3-.3.6.1-.2.3-.3.3-.6zm-18-1.8c-.4 0-.5.1-.5.5.3 0 .4-.3.5-.5zm5.6 3.3s0 .1 0 0c.3 0 .5-.2.7-.3-.4 0-.6.1-.7.3zM26.3 23c-.4 0-.4 0-.4.3.3 0 .3 0 .4-.3zm2.1 7.2c.3-.2.4-.2.3-.5-.2.1-.4.2-.3.5zm-3.7-1.4c.2-.1.3-.3.2-.5-.3.2-.3.2-.2.5zm-11.6 1.9c.3 0 .3-.1.4-.3-.3 0-.4 0-.4.3zm15.6-1.6.3-.3v-.1h-.2c-.2.1-.2.2-.1.4zm.3.5c.2 0 .3-.2.3-.3l-.1-.1c-.2 0-.3.2-.2.4 0-.1 0 0 0 0zm-15.7 1.8h.2l.2-.2-.1-.1c-.1 0-.1.1-.2.2-.1 0-.1 0-.1.1zm14.1-.4c-.3.1-.3.1-.3.4.4-.1.4-.1.3-.4zM13.8 10.8c.4-.1.4-.1.3-.5-.1.2-.2.3-.3.5zm-2.6 18.8c-.1.2-.4.3-.3.5.3-.1.3-.1.3-.5zm3-19.8c-.3.1-.3.1-.3.4.2-.1.3-.2.3-.4zm.5 22.8c.4 0 .5 0 .4-.4-.1.2-.2.3-.4.4zm8.8-2.1c.4 0 .4 0 .4-.4l-.4.4zm-2.6 2.3c-.1.2-.2.3-.1.6.1-.2.2-.3.1-.6zm5.6-9.9c.2 0 .3-.1.4-.3-.3 0-.4.1-.4.3zm0 9.2c.2-.1.3-.2.3-.5-.2.1-.3.2-.3.5zm-13.7-6.3c-.1-.1-.1-.1 0 0-.2 0-.3.1-.4.2.2 0 .3-.1.4-.2zm13 2s0 .1 0 0c.2-.1.3-.2.1-.4-.1.2-.1.3-.1.4zm-1-.7s.1 0 0 0c.2 0 .3-.1.2-.3-.1.1-.1.2-.2.3zm-1.6 2.3s0 .1 0 0c.1 0 .2-.1.3-.2l-.1-.1c-.1.1-.2.2-.2.3z" class="st0"/><path d="M25.2 13c-.6-.6-.6-1.3-.7-2-.1-1-.6-1.9-1.5-2.5-.1-.1-.2-.1-.3-.2h.3c.1 0 .1 0 .2-.1-.1 0-.2-.1-.3-.1-.1 0-.3-.1-.4-.2-.1-.1-.1-.2 0-.2.2.1.4.2.5.3 1.1.6 1.6 1.5 1.8 2.7 0 .2 0 .4.1.7 0 .2.1.4.2.5.4.4.4.9.5 1.4 0 .3 0 .6.1.9.1.2 0 .4 0 .6-.1.5-.3 1-.3 1.6 0 .1 0 .1-.2.1-.3-.5-.3-1-.1-1.5 0-.1.1-.2.1-.3 0-.3 0-.6-.3-.9-.2-.2-.2-.2 0-.4.1-.2.2-.3.3-.4z" class="st0"/><path d="M24.3 11.5c0 .4.2.7.4 1.1h-.5c-.6-.1-.9-.5-1-1.1v-.3c0-.2-.1-.4-.3-.5-.1-.1-.3-.2-.4-.3-.2-.2-.2-.2 0-.4-.1-.2-.2-.4-.3-.7-.2.1-.3.3-.6.3.1-.2.3-.3.4-.5-.1-.1-.1-.3 0-.5.4.1.5.2.4.5-.1.3 0 .6.3.8.3.2.5.4.9.4.3 0 .5.2.5.6-.4-.1-.6-.3-.9-.4-.3.2 0 .4.1.6.1 0 .2-.1.3-.1.1 0 .1.1.2.1.1.1.3.3.5.4zm-.9-.3c.1.6.4 1 .9.9l-.9-.9zM16.8 33.6c1.2-1.4 2.9-2.3 4.3-3.4h.1c-.1.1-.1.3-.2.3-.1.1-.2.3-.4.4L17.9 33c-.3.2-.6.4-.9.5 0 .1-.1.1-.2.1zM14.8 22.8c0-.3 0-.5.2-.7.1-.2.2-.4.4-.6.1.4-.2.7-.4 1.1.2-.1.3-.1.5-.2v.5c.1 0 .1 0 .2-.1v.7c-.4.1-.6-.1-.7-.6 0 0-.1-.1-.2-.1zM23.3 13.6c-.1 0-.1 0-.1-.1-.3-.5-.6-1-.9-1.6.3.1.4.4.6.6.1-.3-.1-.5-.3-.7-.1-.1-.3-.2-.5-.4.4-.1.6 0 .7.3.1.2.2.3.3.5.2.4.3 1.1.2 1.4zM17.5 33.8c.7-.7 1.5-1.2 2.2-1.7 0 .2 0 .3-.1.3l-.9.9c-.2.3-.7.5-1.2.5zM24 17.3c-.2-.1-.4-.2-.5-.3-.2-.1-.2-.4-.2-.6.1-.3.1-.5 0-.8v-.1c.3 0 .3.3.4.3.1-.1.1-.1.2-.4.2.2.3.7.2.9 0 .1-.1.1-.2.1h-.2c-.1 0-.1 0-.2.1v.2c.1.1.1.2.2.2.3 0 .4.1.3.4zM23.6 19.6c-.3.2-.4.2-.6-.1 0-.1-.1-.3-.1-.4-.1-.1-.2-.3-.3-.4-.2-.2-.3-.2-.2-.6.2.1.3.4.5.5v-.5c.3.3.6.5.4 1-.1.3 0 .3.3.5zM17.2 23v.4c0 .2.1.4.2.6.3.3.2.5-.1.8 0-.1 0-.1-.1-.2 0-.1-.1-.1-.1-.3-.2.2-.3.4-.5.6v-.2c.3-.4.3-.8.4-1.2 0-.2 0-.4.2-.5zM21 14.8c.3.2.5.5.5.8v.8c0 .1-.1.1-.2.2-.1-.1-.2-.1-.2-.2 0-.3-.1-.5-.3-.8.1 0 .2-.1.3-.1 0-.2 0-.4-.1-.7zM16.6 11.5c.1-.1.3-.1.4-.3l.1-.1c.4 0 .7-.1 1.1-.3h.2s.1 0 .1.1v.1s-.1 0-.1.1c-.4.2-.9.4-1.4.5-.2 0-.3 0-.4-.1zM20.7 23.4c.2-.2.1-.4 0-.7.3.2.4.3.4.6 0 .2-.1.4-.4.4-.3.1-.6.3-.7.6 0 0-.1 0-.1.1-.1-.1-.1-.3 0-.4.2-.2.3-.4.5-.5.1-.2.2-.1.3-.1zM17 10.1c.4-.3.7-.6 1.3-.4.1 0 .3 0 .4-.1.1 0 .2 0 .3.1-.1.1-.2.2-.4.1-.2 0-.3 0-.5.1-.4.2-.7.3-1.1.2zM19.4 13.5c-.1.2-.1.3-.2.4-.2-.1-.5-.1-.7-.2-.2 0-.3-.1-.5-.2s-.2-.1 0-.4c.5.3.9.4 1.4.4zM22.5 13c0 .5.3.8.6 1.2h-.3c-.1 0-.1 0-.2.1-.1-.1-.2-.2-.3-.4-.3-.4-.2-.6.2-.9zM16.4 22.3c-.3.4-.2.7.1 1-.2.2-.3.2-.3.1-.2-.3-.4-.6-.2-1 0-.3.2-.4.4-.1zM21.2 19.7c-.3-.1-.4-.3-.3-.6 0-.1.1-.2.1-.3.1-.2.2-.5.4-.8v.5c0 .2-.1.3-.1.5-.1.2-.1.4-.1.7zM15.8 19.4c-.3-.3-.3-.5 0-.7l.4-.4s.1-.1.2-.1c0 0 .1.1.1.2-.1.2-.1.4-.3.5-.2 0-.3.2-.4.5.1-.1 0 0 0 0zM18.8 8c-.4.7-1.1 1-1.5.7.4-.2.9-.5 1.5-.7zM13.8 21.5v-.7c0-.4.2-.5.7-.5v.2c-.3.3-.4.7-.7 1 .1 0 0 0 0 0zM19.5 20.7c.2.2.4.5.5.7.1.4 0 .6-.5.8.1-.2.1-.3.2-.4.1-.2.1-.4-.1-.5-.2-.2-.3-.3-.1-.6zM21.7 21.9c-.1-.5.1-1.1-.2-1.5.1 0 .2.1.2.1.3.3.4.7.3 1.1 0 .1-.1.2-.3.3zM18.3 23.9c-.2-.4-.2-.5.1-.8.3-.2.4-.5.4-.9.2.2.1.4.1.5 0 .1-.1.3-.2.4-.1.3-.2.5-.4.8zM18 24.3c.3.2.3.4.2.6-.1.3-.3.5-.5.7 0 0-.1.1-.1 0l-.1-.1c.1-.2.1-.4.3-.5.1-.2.2-.4.2-.7zM15.6 19.3l-.6 1.2c-.3-.5-.3-.7.1-1 .2-.1.3-.2.5-.2zM23.1 17.3c.3-.2.4-.2.6 0 .2.2.4.5.3.9-.1-.1-.2-.1-.2-.1-.2-.4-.4-.6-.7-.8zM20.2 8.1c-.5.4-.8.4-1.1-.2.3.1.7 0 1.1.2zM22.3 21c-.1-.3-.3-.6-.4-.8-.1-.2-.2-.5-.1-.8 0 .4.2.8.5 1 .3.2.2.3 0 .6zM21.9 14.5c.2.3.1.5-.1.8-.3-.2-.3-.5-.5-.8h.6zM24.5 16.4c.2.2.4.5.5.7v.2s-.2.1-.2 0c-.1 0-.1-.1-.2-.2-.1-.2-.1-.4-.1-.7-.1 0 0 0 0 0zM17 10.7c.5-.2.9-.5 1.5-.4-.5.2-1 .4-1.5.4z" class="st0"/><path d="M16.7 25c-.4.1-.6 0-.8-.3-.1-.2-.1-.3.1-.6.2.7.2.7.7.9zM20.7 18.7c-.1-.4.1-.7.2-1.1.3.4.2.7-.2 1.1zM21.9 14.5c0-.1-.1-.3-.1-.4l.1-.1h.2c.1.2.3.4.3.7-.2 0-.3-.1-.5-.2zM22.4 15.7c.3.3.3.4 0 1-.2-.2-.2-.3 0-1zM16 22c-.3-.4-.3-.8.2-1.1 0 .3-.1.7-.2 1.1zM21.1 8.3c.5.1.8.4.5.7 0 0-.1.1-.2.1l-.1-.1v-.4c0-.1-.1-.2-.2-.3zM22.6 15c.4.3.6.6.6 1.2-.2-.2-.3-.4-.4-.6-.1-.1-.2-.3-.2-.6-.1.1 0 0 0 0zM17.2 25.3c.1.1.1.2.1.3-.1.1-.2.2-.4.3-.1 0-.2-.1-.1-.2-.1-.2.1-.3.4-.4zM20 20.2c-.1-.3-.1-.6-.1-1 .4.3.4.6.1 1zM17 18.8c-.1.4-.2.6-.8.7 0-.2.2-.3.3-.4.2-.1.4-.2.5-.3zM18.3 18.3c0 .4-.3.6-.6.8 0-.4.2-.7.6-.8zM22.4 19.7c.4.1.5.2.5.8-.2-.1-.3-.3-.5-.8zM16.2 26c-.2-.3 0-.7.3-.7-.1.5-.1.5-.3.7zM22.9 11.4c-.3-.1-.5-.2-.8-.3 0-.1.1-.2.2-.2.3.1.5.2.6.5zM21.4 22.1v.2c0 .1-.2.1-.3 0-.1-.1-.1-.4 0-.5l.1-.1c.1 0 .1.1.1.1.1.2.1.3.1.3zM24.6 15.7c-.1-.3-.2-.6-.3-.8.4.1.5.3.3.8zM14.7 21.9c-.1-.5.1-.7.5-.7l-.3.3c0 .2-.1.3-.2.4zM20.5 22.1c0-.3.1-.6.1-.8.3.2.3.5-.1.8zM18.9 20v.9c-.3-.2-.3-.5 0-.9zM21.7 12.3c.2.1.4.1.7.2-.5.2-.6.2-.7-.2zM17.7 15.4v.5c-.3 0-.3 0-.3-.2s.1-.3.3-.3zM17.5 20.7v.8c-.4-.1-.4-.4 0-.8zM23.8 13.7c.2.2.5.4.8.7-.4-.1-.6-.3-.8-.7zM15.4 25.9c-.1-.2-.3-.4-.4-.7.4.1.5.3.4.7zM19.6 11c.4 0 .5.1.6.5-.3-.1-.5-.2-.6-.5zM19.1 23.7c-.1.2-.3.5-.4.7-.1-.4.1-.7.4-.7zM20.3 17.9c.2.3 0 .5-.3.6.2-.2.3-.4.3-.6zM18 17.5c.2.3.2.5-.2.7.1-.2.2-.4.2-.7zM17.2 20c-.3-.4-.2-.5.1-.6.1.2 0 .4-.1.6zM22.9 9.7c.3.1.6.2.8.5-.3-.1-.6-.2-.8-.5zM18.9 25.4c-.1-.3 0-.5.3-.6l-.3.6zM20 22.5c-.1.3-.1.3-.4.4.1-.3.2-.4.4-.4zM18.3 20.5c-.2-.3-.1-.5 0-.7.1.2.1.4 0 .7zM18.1 19.4c-.1-.2-.1-.4 0-.5h.1s.1.1 0 .1c.1.2 0 .2-.1.4zM24.3 11.5c0-.2-.1-.4-.2-.7.3.2.3.4.3.7h-.1zM20.6 13.5c-.2.1-.3 0-.3-.2 0 0 0-.1.1-.1s.2.1.2.3zM15.8 20.1c-.1.1-.2.3-.3.5 0-.4 0-.5.3-.5zM16.6 23.8c-.1.2-.2.3-.3.5 0-.3 0-.3.3-.5zM16.9 17.2c.2.3.2.3-.1.5 0-.2.1-.4.1-.5zM17.5 17.6c-.1-.2-.1-.2 0-.5.2.3.1.4 0 .5zM15.5 24.3c0 .1 0 .3.1.4-.2-.1-.3-.2-.2-.4h.1zM16.6 19.9c0 .3 0 .3-.2.5 0-.2.1-.4.2-.5zM19.8 10.3c.1-.1.2 0 .3.1 0 0 0 .1-.1.1s-.2-.1-.2-.2z" class="st0"/></svg>